<svg
  width="60"
  height="92"
  viewBox="16 0 60 88"
  fill="none"
  xmlns="http://www.w3.org/2000/svg"
>
  <path
    d="M61.2773 15.4073C57.2766 11.4065 51.8085 9.20071 46.0761 9.27516C40.3437 9.3496 34.8165 11.6982 30.7105 15.8042C26.6044 19.9103 24.2558 25.4375 24.1814 31.1699C24.1069 36.9023 26.3127 42.3703 30.3135 46.3711L45.7954 30.8892L61.2773 15.4073Z"
    fill="#333333"
  />
  <path
    d="M30.3135 46.3711C26.5233 50.1613 24.4776 55.3856 24.6265 60.8946C24.7754 66.4037 27.1067 71.7463 31.1075 75.7471C35.1082 79.7478 40.4508 82.0791 45.9599 82.228C51.4689 82.3769 56.6932 80.3312 60.4834 76.541L45.3985 61.4561L30.3135 46.3711Z"
    fill="#333333"
  />
  <rect
    width="6.5641"
    height="40.4211"
    transform="matrix(-0.707107 -0.707107 -0.707107 0.707107 65.8883 22.4001)"
    fill="#FD7F6F"
  />
  <rect
    width="6.5641"
    height="26.9474"
    transform="matrix(-0.707107 -0.707107 -0.707107 0.707107 62.163 37.7292)"
    fill="#FD7F6F"
  />
  <rect
    width="6.5641"
    height="13.4737"
    transform="matrix(-0.707107 -0.707107 -0.707107 0.707107 58.4375 53.0586)"
    fill="#FD7F6F"
  />
  <rect
    width="6.5641"
    height="6.73684"
    transform="matrix(-0.707107 -0.707107 -0.707107 0.707107 59.4757 63.624)"
    fill="#FD7F6F"
  />
  <rect
    width="6.5641"
    height="3.36842"
    transform="matrix(-0.707107 -0.707107 -0.707107 0.707107 62.8958 71.8079)"
    fill="#FD7F6F"
  />
</svg>
